REM DIRINDEX 1\2,1\3,1\4,1\6,1\5\7,1\5\8
REM DIRNAME cjc114,folder01,folder02,folder03,folder04,folder05,folder06,folder07
TITLE ""
FILE "DB4500_5th_2A_42.mp3" MP3
  TRACK 01 AUDIO
    TITLE "0:"
    INDEX 01 00:00:00
  TRACK 02 AUDIO
    TITLE "2:cjc114_1375"
    INDEX 01 00:00:07
  TRACK 03 AUDIO
    TITLE "0:"
    INDEX 01 00:01:24
  TRACK 04 AUDIO
    TITLE "3:cjc114_1376"
    INDEX 01 00:01:54
  TRACK 05 AUDIO
    TITLE "0:"
    INDEX 01 00:03:06
  TRACK 06 AUDIO
    TITLE "4:cjc114_1377"
    INDEX 01 00:03:33
  TRACK 07 AUDIO
    TITLE "0:"
    INDEX 01 00:06:53
  TRACK 08 AUDIO
    TITLE "2:cjc114_1378"
    INDEX 01 00:07:33
  TRACK 09 AUDIO
    TITLE "0:"
    INDEX 01 00:08:46
  TRACK 10 AUDIO
    TITLE "3:cjc114_1379"
    INDEX 01 00:09:00
  TRACK 11 AUDIO
    TITLE "0:"
    INDEX 01 00:10:39
  TRACK 12 AUDIO
    TITLE "4:cjc114_1380"
    INDEX 01 00:10:68
  TRACK 13 AUDIO
    TITLE "0:"
    INDEX 01 00:13:73
  TRACK 14 AUDIO
    TITLE "2:cjc114_1381"
    INDEX 01 00:14:51
  TRACK 15 AUDIO
    TITLE "0:"
    INDEX 01 00:15:72
  TRACK 16 AUDIO
    TITLE "3:cjc114_1382"
    INDEX 01 00:16:26
  TRACK 17 AUDIO
    TITLE "0:"
    INDEX 01 00:17:53
  TRACK 18 AUDIO
    TITLE "4:cjc114_1383"
    INDEX 01 00:18:07
  TRACK 19 AUDIO
    TITLE "0:"
    INDEX 01 00:21:33
  TRACK 20 AUDIO
    TITLE "2:cjc114_1384"
    INDEX 01 00:22:11
  TRACK 21 AUDIO
    TITLE "0:"
    INDEX 01 00:23:18
  TRACK 22 AUDIO
    TITLE "3:cjc114_1385"
    INDEX 01 00:23:46
  TRACK 23 AUDIO
    TITLE "0:"
    INDEX 01 00:24:74
  TRACK 24 AUDIO
    TITLE "4:cjc114_1386"
    INDEX 01 00:25:31
  TRACK 25 AUDIO
    TITLE "0:"
    INDEX 01 00:28:59
  TRACK 26 AUDIO
    TITLE "2:cjc114_1387"
    INDEX 01 00:29:38
  TRACK 27 AUDIO
    TITLE "0:"
    INDEX 01 00:30:44
  TRACK 28 AUDIO
    TITLE "3:cjc114_1388"
    INDEX 01 00:30:71
  TRACK 29 AUDIO
    TITLE "0:"
    INDEX 01 00:32:19
  TRACK 30 AUDIO
    TITLE "4:cjc114_1389"
    INDEX 01 00:32:50
  TRACK 31 AUDIO
    TITLE "0:"
    INDEX 01 00:35:33
  TRACK 32 AUDIO
    TITLE "2:cjc114_1390"
    INDEX 01 00:35:74
  TRACK 33 AUDIO
    TITLE "0:"
    INDEX 01 00:37:14
  TRACK 34 AUDIO
    TITLE "3:cjc114_1391"
    INDEX 01 00:37:42
  TRACK 35 AUDIO
    TITLE "0:"
    INDEX 01 00:39:03
  TRACK 36 AUDIO
    TITLE "4:cjc114_1392"
    INDEX 01 00:39:33
  TRACK 37 AUDIO
    TITLE "0:"
    INDEX 01 00:42:41
  TRACK 38 AUDIO
    TITLE "2:cjc114_1393"
    INDEX 01 00:43:17
  TRACK 39 AUDIO
    TITLE "0:"
    INDEX 01 00:44:46
  TRACK 40 AUDIO
    TITLE "3:cjc114_1394"
    INDEX 01 00:44:71
  TRACK 41 AUDIO
    TITLE "0:"
    INDEX 01 00:46:31
  TRACK 42 AUDIO
    TITLE "4:cjc114_1395"
    INDEX 01 00:46:58
  TRACK 43 AUDIO
    TITLE "0:"
    INDEX 01 00:50:54
  TRACK 44 AUDIO
    TITLE "2:cjc114_1396"
    INDEX 01 00:51:26
  TRACK 45 AUDIO
    TITLE "0:"
    INDEX 01 00:52:26
  TRACK 46 AUDIO
    TITLE "3:cjc114_1397"
    INDEX 01 00:52:51
  TRACK 47 AUDIO
    TITLE "0:"
    INDEX 01 00:53:58
  TRACK 48 AUDIO
    TITLE "4:cjc114_1398"
    INDEX 01 00:54:05
  TRACK 49 AUDIO
    TITLE "0:"
    INDEX 01 00:56:61
  TRACK 50 AUDIO
    TITLE "2:cjc114_1399"
    INDEX 01 00:57:35
  TRACK 51 AUDIO
    TITLE "0:"
    INDEX 01 00:58:36
  TRACK 52 AUDIO
    TITLE "3:cjc114_1400"
    INDEX 01 00:58:58
  TRACK 53 AUDIO
    TITLE "0:"
    INDEX 01 01:00:19
  TRACK 54 AUDIO
    TITLE "4:cjc114_1401"
    INDEX 01 01:00:43
  TRACK 55 AUDIO
    TITLE "0:"
    INDEX 01 01:04:74
  TRACK 56 AUDIO
    TITLE "4:cjc114_1402"
    INDEX 01 01:05:48
  TRACK 57 AUDIO
    TITLE "0:"
    INDEX 01 01:08:74
  TRACK 58 AUDIO
    TITLE "2:cjc114_1403"
    INDEX 01 01:09:54
  TRACK 59 AUDIO
    TITLE "0:"
    INDEX 01 01:10:49
  TRACK 60 AUDIO
    TITLE "3:cjc114_1404"
    INDEX 01 01:11:00
  TRACK 61 AUDIO
    TITLE "0:"
    INDEX 01 01:12:09
  TRACK 62 AUDIO
    TITLE "4:cjc114_1405"
    INDEX 01 01:12:34
  TRACK 63 AUDIO
    TITLE "0:"
    INDEX 01 01:14:17
  TRACK 64 AUDIO
    TITLE "2:cjc114_1406"
    INDEX 01 01:14:65
  TRACK 65 AUDIO
    TITLE "0:"
    INDEX 01 01:15:68
  TRACK 66 AUDIO
    TITLE "3:cjc114_1407"
    INDEX 01 01:16:12
  TRACK 67 AUDIO
    TITLE "0:"
    INDEX 01 01:17:16
  TRACK 68 AUDIO
    TITLE "4:cjc114_1408"
    INDEX 01 01:17:41
  TRACK 69 AUDIO
    TITLE "0:"
    INDEX 01 01:20:26
